<mxfile host="65bd71144e">
    <diagram id="AJJaFtfHw6PIDKcM8DpK" name="Page-1">
        <mxGraphModel dx="939" dy="891" grid="1" gridSize="10" guides="1" tooltips="1" connect="1" arrows="1" fold="1" page="1" pageScale="1" pageWidth="827" pageHeight="1169" math="0" shadow="0">
            <root>
                <mxCell id="0"/>
                <mxCell id="1" parent="0"/>
                <mxCell id="2" value="Fight App" style="rounded=0;whiteSpace=wrap;html=1;" vertex="1" parent="1">
                    <mxGeometry x="180" y="200" width="120" height="60" as="geometry"/>
                </mxCell>
                <mxCell id="3" value="World Generator" style="rounded=0;whiteSpace=wrap;html=1;" vertex="1" parent="1">
                    <mxGeometry x="380" y="200" width="120" height="60" as="geometry"/>
                </mxCell>
                <mxCell id="4" value="Monster Generator" style="rounded=0;whiteSpace=wrap;html=1;" vertex="1" parent="1">
                    <mxGeometry x="350" y="310" width="120" height="60" as="geometry"/>
                </mxCell>
                <mxCell id="5" value="Web Viewer" style="rounded=0;whiteSpace=wrap;html=1;" vertex="1" parent="1">
                    <mxGeometry x="540" y="300" width="120" height="60" as="geometry"/>
                </mxCell>
                <mxCell id="6" value="DB" style="shape=cylinder3;whiteSpace=wrap;html=1;boundedLbl=1;backgroundOutline=1;size=15;" vertex="1" parent="1">
                    <mxGeometry x="320" y="100" width="80" height="60" as="geometry"/>
                </mxCell>
                <mxCell id="7" value="Monster AI" style="rounded=0;whiteSpace=wrap;html=1;" vertex="1" parent="1">
                    <mxGeometry x="190" y="300" width="120" height="60" as="geometry"/>
                </mxCell>
                <mxCell id="8" value="Test Framework" style="rounded=0;whiteSpace=wrap;html=1;" vertex="1" parent="1">
                    <mxGeometry x="160" y="80" width="120" height="60" as="geometry"/>
                </mxCell>
                <mxCell id="9" value="Sonarqube" style="rounded=0;whiteSpace=wrap;html=1;" vertex="1" parent="1">
                    <mxGeometry x="340" y="10" width="120" height="60" as="geometry"/>
                </mxCell>
                <mxCell id="10" value="Git" style="rounded=0;whiteSpace=wrap;html=1;" vertex="1" parent="1">
                    <mxGeometry x="510" y="40" width="120" height="60" as="geometry"/>
                </mxCell>
                <mxCell id="11" value="Docker" style="rounded=0;whiteSpace=wrap;html=1;" vertex="1" parent="1">
                    <mxGeometry x="560" y="180" width="120" height="60" as="geometry"/>
                </mxCell>
                <mxCell id="12" value="Lombok" style="rounded=0;whiteSpace=wrap;html=1;" vertex="1" parent="1">
                    <mxGeometry x="680" y="50" width="120" height="60" as="geometry"/>
                </mxCell>
                <mxCell id="13" value="CI/CD" style="rounded=0;whiteSpace=wrap;html=1;" vertex="1" parent="1">
                    <mxGeometry x="710" y="230" width="120" height="60" as="geometry"/>
                </mxCell>
            </root>
        </mxGraphModel>
    </diagram>
</mxfile>